<svg xmlns="http://www.w3.org/2000/svg" width="245.09" height="210.02" viewBox="0 0 245.09 210.02"><defs><style>.cls-1{fill:#0a733a;}.cls-1,.cls-2,.cls-3,.cls-4{fill-rule:evenodd;}.cls-2{fill:#7ec142;}.cls-3{fill:#3aaf4a;}.cls-4{fill:#014b25;}</style></defs><g id="Layer_2" data-name="Layer 2"><path class="cls-1" d="M118.83,104.82V121.7c-16.74-1.43-29.75-12.34-29.75-25.6V90.17Z"/><path class="cls-1" d="M156,90.17V96.1c0,13.26-13,24.17-29.75,25.6V104.82Z"/><path class="cls-2" d="M118.82,48V70.66L89.08,55.1V26a1.69,1.69,0,0,1,1.86-1.43h3.72A1.69,1.69,0,0,1,96.52,26V37.28Z"/><polygon class="cls-3" points="156.01 62.02 156.01 83.37 126.26 98.02 126.26 77.59 156.01 62.02"/><polygon class="cls-3" points="118.83 77.59 118.83 98.02 89.08 83.37 89.08 62.02 118.83 77.59"/><path class="cls-2" d="M156,26V55.1L126.26,70.67V48l22.31-10.74V26a1.69,1.69,0,0,1,1.86-1.43h3.72A1.68,1.68,0,0,1,156,26Z"/><path class="cls-4" d="M122.55,0a71.19,71.19,0,1,0,71.18,71.18A71.26,71.26,0,0,0,122.55,0Zm3.71,132.71v-11h-7.43v11a61.64,61.64,0,0,1,0-123V48h7.43V9.66a61.64,61.64,0,0,1,0,123.05Z"/><path d="M0,186.19v-13a1.71,1.71,0,0,1,1.89-1.89H3.47a1.76,1.76,0,0,1,1.95,1.89v12.94c0,5.37,2.42,7.37,5.21,7.37s8.2-1.9,8.2-9.84V173.19a1.72,1.72,0,0,1,1.9-1.89h1.58a1.75,1.75,0,0,1,1.94,1.89v22.57a1.75,1.75,0,0,1-1.94,1.89H20.73a1.72,1.72,0,0,1-1.9-1.89V192.5c-1.15,3.68-4.52,5.73-8.78,5.73C4.21,198.23,0,194.45,0,186.19Z"/><path d="M32.14,195.76V173.19a1.76,1.76,0,0,1,2-1.89h1.58a1.71,1.71,0,0,1,1.89,1.89v4c.89-4.21,3.89-6.47,7-6.47l1.16.05c1.1.16,1.26,1,1.26,2.11v1.52c0,1.32-.53,1.84-1.42,1.63a6.87,6.87,0,0,0-1.42-.16c-1.89,0-6.63.95-6.63,11.74v8.15a1.71,1.71,0,0,1-1.89,1.89H34.09A1.76,1.76,0,0,1,32.14,195.76Z"/><path d="M58.45,196.13l-8.79-22.68c-.47-1.31.05-2.15,1.47-2.15h1.74a2.15,2.15,0,0,1,2.21,1.52l7,18.89,7-18.89a2.15,2.15,0,0,1,2.21-1.52H73c1.42,0,1.94.84,1.47,2.15L65.7,196.13a2.26,2.26,0,0,1-2.26,1.52H60.71A2.26,2.26,0,0,1,58.45,196.13Z"/><path d="M77.59,184.45c0-7.58,5.21-13.73,13-13.73a10.91,10.91,0,0,1,9.42,4.73v-2.26A1.75,1.75,0,0,1,102,171.3h1.58a1.72,1.72,0,0,1,1.9,1.89v22.57a1.72,1.72,0,0,1-1.9,1.89H102a1.75,1.75,0,0,1-1.94-1.89V193.5a10.91,10.91,0,0,1-9.42,4.73C82.8,198.23,77.59,192,77.59,184.45Zm22.57,0c0-5.21-3.58-9-8.78-9s-8.37,4.16-8.37,9,3,9.05,8.37,9.05S100.11,189.66,100.16,184.45Z"/><path d="M113.42,195.76V173.19a1.75,1.75,0,0,1,1.94-1.89h1.58a1.72,1.72,0,0,1,1.9,1.89v4c.89-4.21,3.89-6.47,7-6.47l1.15.05c1.11.16,1.27,1,1.27,2.11v1.52c0,1.32-.53,1.84-1.42,1.63a7,7,0,0,0-1.43-.16c-1.89,0-6.62.95-6.62,11.74v8.15a1.72,1.72,0,0,1-1.9,1.89h-1.58A1.75,1.75,0,0,1,113.42,195.76Z"/><path d="M130.52,184.45c0-7.58,5.2-13.73,13-13.73a10.89,10.89,0,0,1,9.42,4.73v-2.26a1.76,1.76,0,0,1,2-1.89h1.57a1.72,1.72,0,0,1,1.9,1.89v22.57a1.72,1.72,0,0,1-1.9,1.89h-1.57a1.76,1.76,0,0,1-2-1.89V193.5a10.89,10.89,0,0,1-9.42,4.73C135.72,198.23,130.52,192,130.52,184.45Zm22.56,0c-.05-5.21-3.57-9-8.78-9s-8.37,4.16-8.37,9,3.06,9.05,8.37,9.05S153,189.66,153.08,184.45Z"/><path d="M168.44,207.28a1.88,1.88,0,0,1-.58-2.63l.43-.74c.57-1.21,1.47-1.31,2.57-.63a14,14,0,0,0,7.53,2.05c5.05,0,8.52-2.89,8.52-8.46V193.5a10.89,10.89,0,0,1-9.42,4.73c-7.89,0-13-6.2-13-13.78s5.15-13.73,13-13.73a10.89,10.89,0,0,1,9.42,4.73v-2.31a1.74,1.74,0,0,1,2-1.84h1.52a1.76,1.76,0,0,1,2,1.89v24c0,9-6.58,12.79-13.89,12.79A17.26,17.26,0,0,1,168.44,207.28ZM187,184.45c0-5.21-3.57-9-8.78-9s-8.37,4.16-8.37,9,3.06,9.05,8.37,9.05S187,189.66,187,184.45Z"/><path d="M200.22,195.76V173.19a1.75,1.75,0,0,1,1.94-1.89h1.58a1.72,1.72,0,0,1,1.9,1.89v4c.89-4.21,3.89-6.47,7.05-6.47l1.15.05c1.11.16,1.26,1,1.26,2.11v1.52c0,1.32-.52,1.84-1.42,1.63a6.79,6.79,0,0,0-1.42-.16c-1.89,0-6.62.95-6.62,11.74v8.15a1.72,1.72,0,0,1-1.9,1.89h-1.58A1.75,1.75,0,0,1,200.22,195.76Z"/><path d="M217.21,184.45a13.94,13.94,0,1,1,13.89,13.78A13.81,13.81,0,0,1,217.21,184.45Zm22.46.05a8.56,8.56,0,1,0-8.57,9A8.79,8.79,0,0,0,239.67,184.5Z"/></g></svg>