<svg xmlns="http://www.w3.org/2000/svg" width="413.39" height="84.01" viewBox="0 0 413.39 84.01"><defs><style>.cls-1{fill:#fff;fill-rule:evenodd;}.cls-2{fill:#fcfdff;}</style></defs><g id="Layer_2" data-name="Layer 2"><path class="cls-1" d="M39.81,61.85v10c-9.87-.84-17.55-7.28-17.55-15.1V53.2Z"/><path class="cls-1" d="M61.76,53.2v3.51c0,7.82-7.69,14.26-17.56,15.1v-10Z"/><path class="cls-1" d="M39.81,28.34V41.69L22.26,32.51V15.34a1,1,0,0,1,1.1-.85h2.19a1,1,0,0,1,1.1.85V22Z"/><polygon class="cls-1" points="61.76 36.6 61.76 49.2 44.2 57.84 44.2 45.78 61.76 36.6"/><polygon class="cls-1" points="39.81 45.78 39.81 57.84 22.26 49.2 22.26 36.6 39.81 45.78"/><path class="cls-1" d="M61.75,15.34V32.51L44.2,41.7V28.34L57.36,22V15.34a1,1,0,0,1,1.1-.85h2.2A1,1,0,0,1,61.75,15.34Z"/><path class="cls-1" d="M42,0A42,42,0,1,0,84,42,42,42,0,0,0,42,0ZM44.2,78.31v-6.5H39.82v6.5a36.37,36.37,0,0,1,0-72.61V28.33H44.2V5.7a36.37,36.37,0,0,1,0,72.61Z"/><path class="cls-2" d="M101.24,48.28V31.73a2.19,2.19,0,0,1,2.41-2.41h2a2.24,2.24,0,0,1,2.48,2.41V48.21c0,6.84,3.08,9.38,6.63,9.38s10.45-2.41,10.45-12.52V31.73a2.19,2.19,0,0,1,2.41-2.41h2a2.23,2.23,0,0,1,2.48,2.41V60.48a2.23,2.23,0,0,1-2.48,2.41h-2a2.19,2.19,0,0,1-2.41-2.41V56.32c-1.47,4.69-5.76,7.3-11.19,7.3C106.6,63.62,101.24,58.8,101.24,48.28Z"/><path class="cls-2" d="M142.17,60.48V31.73a2.24,2.24,0,0,1,2.48-2.41h2a2.19,2.19,0,0,1,2.41,2.41v5.09c1.14-5.36,5-8.24,9-8.24l1.48.07c1.4.2,1.6,1.34,1.6,2.68v1.94c0,1.68-.67,2.35-1.81,2.08a8.49,8.49,0,0,0-1.8-.2c-2.42,0-8.45,1.2-8.45,14.94V60.48a2.19,2.19,0,0,1-2.41,2.41h-2A2.24,2.24,0,0,1,142.17,60.48Z"/><path class="cls-2" d="M175.67,60.94,164.48,32.07c-.6-1.68.07-2.75,1.88-2.75h2.21a2.73,2.73,0,0,1,2.81,1.94l8.92,24.06,8.91-24.06A2.73,2.73,0,0,1,192,29.32h2.21c1.81,0,2.48,1.07,1.88,2.75L184.92,60.94a2.9,2.9,0,0,1-2.88,2h-3.49A2.9,2.9,0,0,1,175.67,60.94Z"/><path class="cls-2" d="M200.06,46.07c0-9.65,6.63-17.49,16.62-17.49a13.87,13.87,0,0,1,12,6V31.73a2.24,2.24,0,0,1,2.48-2.41h2a2.19,2.19,0,0,1,2.41,2.41V60.48a2.19,2.19,0,0,1-2.41,2.41h-2a2.24,2.24,0,0,1-2.48-2.41V57.59a13.87,13.87,0,0,1-12,6C206.69,63.62,200.06,55.72,200.06,46.07Zm28.74,0c-.06-6.63-4.55-11.52-11.19-11.52S207,39.84,207,46.07s3.89,11.52,10.65,11.52S228.74,52.7,228.8,46.07Z"/><path class="cls-2" d="M245.69,60.48V31.73a2.23,2.23,0,0,1,2.48-2.41h2a2.19,2.19,0,0,1,2.41,2.41v5.09c1.14-5.36,5-8.24,9-8.24l1.47.07c1.41.2,1.61,1.34,1.61,2.68v1.94c0,1.68-.67,2.35-1.81,2.08a8.58,8.58,0,0,0-1.81-.2c-2.41,0-8.44,1.2-8.44,14.94V60.48a2.19,2.19,0,0,1-2.41,2.41h-2A2.23,2.23,0,0,1,245.69,60.48Z"/><path class="cls-2" d="M267.46,46.07c0-9.65,6.63-17.49,16.62-17.49a13.86,13.86,0,0,1,12,6V31.73a2.24,2.24,0,0,1,2.48-2.41h2A2.19,2.19,0,0,1,303,31.73V60.48a2.19,2.19,0,0,1-2.41,2.41h-2a2.24,2.24,0,0,1-2.48-2.41V57.59a13.86,13.86,0,0,1-12,6C274.09,63.62,267.46,55.72,267.46,46.07Zm28.75,0c-.07-6.63-4.56-11.52-11.19-11.52s-10.66,5.29-10.66,11.52S278.25,57.59,285,57.59,296.14,52.7,296.21,46.07Z"/><path class="cls-2" d="M315.77,75.15A2.38,2.38,0,0,1,315,71.8l.54-.94c.73-1.54,1.87-1.67,3.28-.8a17.76,17.76,0,0,0,9.58,2.61c6.43,0,10.86-3.69,10.86-10.79V57.59a13.87,13.87,0,0,1-12,6c-10.05,0-16.61-7.9-16.61-17.55s6.56-17.49,16.61-17.49a13.87,13.87,0,0,1,12,6V31.66a2.21,2.21,0,0,1,2.47-2.34h1.95a2.24,2.24,0,0,1,2.48,2.41V62.35c0,11.39-8.38,16.28-17.69,16.28A22,22,0,0,1,315.77,75.15Zm23.65-29.08c-.07-6.63-4.56-11.52-11.19-11.52s-10.65,5.29-10.65,11.52,3.88,11.52,10.65,11.52S339.35,52.7,339.42,46.07Z"/><path class="cls-2" d="M356.24,60.48V31.73a2.23,2.23,0,0,1,2.47-2.41h2a2.19,2.19,0,0,1,2.42,2.41v5.09c1.14-5.36,4.95-8.24,9-8.24l1.48.07c1.41.2,1.61,1.34,1.61,2.68v1.94c0,1.68-.67,2.35-1.81,2.08a8.65,8.65,0,0,0-1.81-.2c-2.41,0-8.44,1.2-8.44,14.94V60.48a2.19,2.19,0,0,1-2.42,2.41h-2A2.23,2.23,0,0,1,356.24,60.48Z"/><path class="cls-2" d="M377.88,46.07a17.76,17.76,0,1,1,17.68,17.55A17.58,17.58,0,0,1,377.88,46.07Zm28.61.07c0-6.37-4.83-11.53-10.93-11.53s-10.85,5.16-10.85,11.53,4.89,11.45,10.85,11.45A11.14,11.14,0,0,0,406.49,46.14Z"/></g></svg>