<svg xmlns="http://www.w3.org/2000/svg" width="166.3" height="166.29" viewBox="0 0 166.3 166.29"><defs><style>.cls-1{fill:#0a733a;}.cls-1,.cls-2,.cls-3,.cls-4{fill-rule:evenodd;}.cls-2{fill:#7ec142;}.cls-3{fill:#3aaf4a;}.cls-4{fill:#014b25;}</style></defs><g id="Layer_2" data-name="Layer 2"><path class="cls-1" d="M78.81,122.43v19.72c-19.55-1.67-34.75-14.41-34.75-29.9v-6.93Z"/><path class="cls-1" d="M122.24,105.32v6.93c0,15.49-15.21,28.23-34.75,29.9V122.43Z"/><path class="cls-2" d="M78.8,56.09V82.53L44.06,64.36v-34a2,2,0,0,1,2.17-1.67h4.35a2,2,0,0,1,2.17,1.67V43.55Z"/><polygon class="cls-3" points="122.24 72.44 122.24 97.38 87.49 114.49 87.49 90.63 122.24 72.44"/><polygon class="cls-3" points="78.81 90.63 78.81 114.49 44.06 97.38 44.06 72.44 78.81 90.63"/><path class="cls-2" d="M122.23,30.36v34L87.49,82.54V56.09l26.06-12.54V30.36a2,2,0,0,1,2.17-1.67h4.35A2,2,0,0,1,122.23,30.36Z"/><path class="cls-4" d="M83.15,0A83.15,83.15,0,1,0,166.3,83.14,83.24,83.24,0,0,0,83.15,0Zm4.34,155V142.15H78.82V155a72,72,0,0,1,0-143.73V56.07h8.67V11.28a72,72,0,0,1,0,143.73Z"/></g></svg>