<svg xmlns="http://www.w3.org/2000/svg" width="413.52" height="84.01" viewBox="0 0 413.52 84.01"><defs><style>.cls-1,.cls-2{fill:#1b1c1c;}.cls-1{fill-rule:evenodd;}</style></defs><g id="Layer_2" data-name="Layer 2"><path class="cls-1" d="M39.81,61.85v10c-9.87-.84-17.55-7.28-17.55-15.1V53.2Z"/><path class="cls-1" d="M61.76,53.2v3.51c0,7.82-7.69,14.26-17.56,15.1v-10Z"/><path class="cls-1" d="M39.81,28.34V41.69L22.26,32.51V15.34a1,1,0,0,1,1.1-.85h2.19a1,1,0,0,1,1.1.85V22Z"/><polygon class="cls-1" points="61.76 36.6 61.76 49.2 44.2 57.84 44.2 45.78 61.76 36.6"/><polygon class="cls-1" points="39.81 45.78 39.81 57.84 22.26 49.2 22.26 36.6 39.81 45.78"/><path class="cls-1" d="M61.75,15.34V32.51L44.2,41.7V28.34L57.36,22V15.34a1,1,0,0,1,1.1-.85h2.2A1,1,0,0,1,61.75,15.34Z"/><path class="cls-1" d="M42,0A42,42,0,1,0,84,42,42,42,0,0,0,42,0ZM44.2,78.31v-6.5H39.82v6.5a36.37,36.37,0,0,1,0-72.61V28.33H44.2V5.7a36.37,36.37,0,0,1,0,72.61Z"/><path class="cls-2" d="M101.37,47.88V31.33a2.19,2.19,0,0,1,2.41-2.41h2a2.24,2.24,0,0,1,2.48,2.41V47.81c0,6.84,3.08,9.38,6.63,9.38s10.46-2.41,10.46-12.53V31.33a2.19,2.19,0,0,1,2.41-2.41h2a2.24,2.24,0,0,1,2.48,2.41V60.07a2.24,2.24,0,0,1-2.48,2.41h-2a2.19,2.19,0,0,1-2.41-2.41V55.92c-1.48,4.69-5.77,7.3-11.19,7.3C106.73,63.22,101.37,58.4,101.37,47.88Z"/><path class="cls-2" d="M142.31,60.07V31.33a2.23,2.23,0,0,1,2.48-2.41h2a2.19,2.19,0,0,1,2.42,2.41v5.09c1.14-5.36,5-8.24,9-8.24l1.48.07c1.41.2,1.61,1.34,1.61,2.68v1.94c0,1.68-.67,2.35-1.81,2.08a8,8,0,0,0-1.81-.2c-2.41,0-8.44,1.2-8.44,14.94V60.07a2.19,2.19,0,0,1-2.42,2.41h-2A2.23,2.23,0,0,1,142.31,60.07Z"/><path class="cls-2" d="M175.81,60.54,164.62,31.66c-.61-1.67.06-2.74,1.87-2.74h2.21a2.74,2.74,0,0,1,2.82,1.94l8.91,24,8.91-24a2.74,2.74,0,0,1,2.81-1.94h2.21c1.81,0,2.48,1.07,1.88,2.74L185.05,60.54a2.89,2.89,0,0,1-2.88,1.94h-3.48A2.89,2.89,0,0,1,175.81,60.54Z"/><path class="cls-2" d="M200.19,45.67c0-9.65,6.64-17.49,16.62-17.49a13.86,13.86,0,0,1,12,6V31.33a2.24,2.24,0,0,1,2.48-2.41h2a2.19,2.19,0,0,1,2.41,2.41V60.07a2.19,2.19,0,0,1-2.41,2.41h-2a2.24,2.24,0,0,1-2.48-2.41V57.19a13.86,13.86,0,0,1-12,6C206.83,63.22,200.19,55.32,200.19,45.67Zm28.75,0c-.07-6.64-4.56-11.53-11.19-11.53s-10.66,5.3-10.66,11.53S211,57.19,217.75,57.19,228.87,52.3,228.94,45.67Z"/><path class="cls-2" d="M245.82,60.07V31.33a2.24,2.24,0,0,1,2.48-2.41h2a2.19,2.19,0,0,1,2.41,2.41v5.09c1.14-5.36,5-8.24,9-8.24l1.47.07c1.41.2,1.61,1.34,1.61,2.68v1.94c0,1.68-.67,2.35-1.81,2.08a7.91,7.91,0,0,0-1.81-.2c-2.41,0-8.44,1.2-8.44,14.94V60.07a2.19,2.19,0,0,1-2.41,2.41h-2A2.24,2.24,0,0,1,245.82,60.07Z"/><path class="cls-2" d="M267.6,45.67c0-9.65,6.63-17.49,16.61-17.49a13.87,13.87,0,0,1,12,6V31.33a2.23,2.23,0,0,1,2.47-2.41h2a2.19,2.19,0,0,1,2.42,2.41V60.07a2.19,2.19,0,0,1-2.42,2.41h-2a2.23,2.23,0,0,1-2.47-2.41V57.19a13.87,13.87,0,0,1-12,6C274.23,63.22,267.6,55.32,267.6,45.67Zm28.74,0c-.07-6.64-4.56-11.53-11.19-11.53s-10.65,5.3-10.65,11.53,3.88,11.52,10.65,11.52S296.27,52.3,296.34,45.67Z"/><path class="cls-2" d="M315.9,74.75a2.38,2.38,0,0,1-.74-3.35l.54-.94c.74-1.54,1.88-1.68,3.28-.81a17.79,17.79,0,0,0,9.58,2.62c6.44,0,10.86-3.69,10.86-10.79V57.19a13.86,13.86,0,0,1-12,6c-10.06,0-16.62-7.9-16.62-17.55s6.56-17.49,16.62-17.49a13.86,13.86,0,0,1,12,6V31.26a2.22,2.22,0,0,1,2.48-2.34h1.94a2.24,2.24,0,0,1,2.48,2.41V62c0,11.39-8.37,16.28-17.69,16.28A22,22,0,0,1,315.9,74.75Zm23.65-29.08C339.49,39,335,34.14,328.36,34.14s-10.65,5.3-10.65,11.53,3.89,11.52,10.65,11.52S339.49,52.3,339.55,45.67Z"/><path class="cls-2" d="M356.37,60.07V31.33a2.24,2.24,0,0,1,2.48-2.41h2a2.19,2.19,0,0,1,2.41,2.41v5.09c1.14-5.36,5-8.24,9-8.24l1.47.07c1.41.2,1.61,1.34,1.61,2.68v1.94c0,1.68-.67,2.35-1.81,2.08a7.91,7.91,0,0,0-1.81-.2c-2.41,0-8.44,1.2-8.44,14.94V60.07a2.19,2.19,0,0,1-2.41,2.41h-2A2.24,2.24,0,0,1,356.37,60.07Z"/><path class="cls-2" d="M378,45.67A17.76,17.76,0,1,1,395.7,63.22,17.59,17.59,0,0,1,378,45.67Zm28.61.06c0-6.36-4.83-11.52-10.92-11.52s-10.86,5.16-10.86,11.52,4.9,11.46,10.86,11.46A11.14,11.14,0,0,0,406.62,45.73Z"/></g></svg>